 <svg
          width="205"
          height="88"
          viewBox="0 0 205 88"
          fill="none"
          xmlns="http://www.w3.org/2000/svg"
        >
          <path
            d="M22.86 48.5204H9.36727L7.13465 54.9755H0L12.1823 21.0495H20.0935L32.2758 54.9755H25.0926L22.86 48.5204ZM21.0157 43.0844L16.1136 28.9122L11.2116 43.0844H21.0157Z"
            fill="black"
          />
          <path
            d="M43.6243 19.0596V54.9755H36.8294V19.0596H43.6243Z"
            fill="black"
          />
          <path
            d="M57.1326 19.0596V54.9755H50.3377V19.0596H57.1326Z"
            fill="black"
          />
          <path
            d="M70.6409 21.098V54.9755H63.846V21.098H70.6409Z"
            fill="black"
          />
          <path
            d="M92.2545 27.6988C95.4578 27.6988 98.0464 28.718 100.02 30.7565C101.994 32.7626 102.981 35.5777 102.981 39.2016V54.9755H96.1859V40.1238C96.1859 37.9882 95.652 36.3542 94.5842 35.2217C93.5164 34.0569 92.0604 33.4745 90.216 33.4745C88.3394 33.4745 86.851 34.0569 85.7508 35.2217C84.6831 36.3542 84.1492 37.9882 84.1492 40.1238V54.9755H77.3543V28.0871H84.1492V31.436C85.0552 30.2712 86.2038 29.3652 87.5952 28.718C89.0188 28.0386 90.572 27.6988 92.2545 27.6988Z"
            fill="black"
          />
          <path
            d="M125.168 55.3153C121.997 55.3153 119.085 54.5711 116.431 53.0826C113.778 51.5942 111.675 49.5396 110.122 46.9187C108.569 44.2654 107.792 41.2724 107.792 37.9397C107.792 34.6393 108.569 31.6787 110.122 29.0578C111.675 26.4045 113.778 24.3337 116.431 22.8453C119.085 21.3569 121.997 20.6127 125.168 20.6127C128.371 20.6127 131.283 21.3569 133.904 22.8453C136.557 24.3337 138.644 26.4045 140.165 29.0578C141.718 31.6787 142.495 34.6393 142.495 37.9397C142.495 41.2724 141.718 44.2654 140.165 46.9187C138.644 49.5396 136.557 51.5942 133.904 53.0826C131.251 54.5711 128.339 55.3153 125.168 55.3153ZM125.168 49.2484C127.206 49.2484 129.002 48.7954 130.555 47.8894C132.108 46.951 133.322 45.6244 134.195 43.9095C135.069 42.1946 135.506 40.2047 135.506 37.9397C135.506 35.6747 135.069 33.701 134.195 32.0184C133.322 30.3035 132.108 28.9931 130.555 28.0871C129.002 27.1811 127.206 26.7281 125.168 26.7281C123.129 26.7281 121.317 27.1811 119.732 28.0871C118.179 28.9931 116.965 30.3035 116.092 32.0184C115.218 33.701 114.781 35.6747 114.781 37.9397C114.781 40.2047 115.218 42.1946 116.092 43.9095C116.965 45.6244 118.179 46.951 119.732 47.8894C121.317 48.7954 123.129 49.2484 125.168 49.2484Z"
            fill="black"
          />
          <path
            d="M162.45 27.6988C165.654 27.6988 168.242 28.718 170.216 30.7565C172.19 32.7626 173.176 35.5777 173.176 39.2016V54.9755H166.382V40.1238C166.382 37.9882 165.848 36.3542 164.78 35.2217C163.712 34.0569 162.256 33.4745 160.412 33.4745C158.535 33.4745 157.047 34.0569 155.947 35.2217C154.879 36.3542 154.345 37.9882 154.345 40.1238V54.9755H147.55V28.0871H154.345V31.436C155.251 30.2712 156.4 29.3652 157.791 28.718C159.215 28.0386 160.768 27.6988 162.45 27.6988Z"
            fill="black"
          />
          <path
            d="M204.634 40.9489C204.634 41.9196 204.569 42.7932 204.439 43.5698H184.783C184.945 45.5112 185.624 47.0319 186.821 48.1321C188.018 49.2322 189.491 49.7823 191.238 49.7823C193.762 49.7823 195.558 48.6983 196.625 46.5304H203.954C203.178 49.1189 201.689 51.2545 199.489 52.937C197.289 54.5872 194.587 55.4123 191.384 55.4123C188.795 55.4123 186.465 54.8461 184.395 53.7136C182.356 52.5488 180.754 50.9147 179.59 48.8116C178.457 46.7084 177.891 44.2816 177.891 41.5313C177.891 38.7486 178.457 36.3057 179.59 34.2025C180.722 32.0993 182.308 30.4815 184.346 29.349C186.384 28.2165 188.73 27.6503 191.384 27.6503C193.94 27.6503 196.221 28.2003 198.227 29.3005C200.265 30.4006 201.835 31.9699 202.935 34.0084C204.067 36.0145 204.634 38.328 204.634 40.9489ZM197.596 39.0075C197.564 37.2602 196.933 35.8689 195.703 34.8335C194.474 33.7657 192.969 33.2318 191.189 33.2318C189.507 33.2318 188.083 33.7495 186.918 34.7849C185.786 35.788 185.09 37.1955 184.831 39.0075H197.596Z"
            fill="black"
          />
          <path
            d="M74.7586 69.0228C74.7586 71.2731 74.021 73.0858 72.5458 74.461C71.0707 75.8361 68.8579 76.5237 65.9076 76.5237H60.6194V87.7H57.9941V61.4845H65.9076C68.8329 61.4845 71.0332 62.172 72.5083 63.5472C74.0085 64.9224 74.7586 66.7476 74.7586 69.0228ZM65.9076 74.2734C70.008 74.2734 72.0583 72.5232 72.0583 69.0228C72.0583 67.2726 71.5707 65.9475 70.5956 65.0474C69.6205 64.1473 68.0578 63.6972 65.9076 63.6972H60.6194V74.2734H65.9076Z"
            fill="black"
          />
          <path
            d="M88.1271 88C86.2019 88 84.4642 87.575 82.914 86.7249C81.3889 85.8498 80.1762 84.6246 79.2761 83.0495C78.401 81.4493 77.9635 79.5866 77.9635 77.4613C77.9635 75.3361 78.4135 73.4859 79.3136 71.9107C80.2137 70.3105 81.4389 69.0853 82.989 68.2352C84.5392 67.3601 86.2769 66.9226 88.2021 66.9226C90.1274 66.9226 91.8651 67.3601 93.4153 68.2352C94.9904 69.0853 96.2156 70.3105 97.0907 71.9107C97.9908 73.4859 98.4408 75.3361 98.4408 77.4613C98.4408 79.5616 97.9908 81.4118 97.0907 83.012C96.1906 84.6121 94.9529 85.8498 93.3778 86.7249C91.8026 87.575 90.0524 88 88.1271 88ZM88.1271 85.7123C89.4773 85.7123 90.7274 85.4122 91.8776 84.8122C93.0277 84.1871 93.9528 83.262 94.6529 82.0368C95.378 80.7867 95.7405 79.2615 95.7405 77.4613C95.7405 75.6611 95.3905 74.1484 94.6904 72.9233C93.9903 71.6731 93.0652 70.748 91.9151 70.148C90.7649 69.5229 89.5148 69.2104 88.1646 69.2104C86.8145 69.2104 85.5643 69.5229 84.4142 70.148C83.2641 70.748 82.339 71.6731 81.6389 72.9233C80.9638 74.1484 80.6263 75.6611 80.6263 77.4613C80.6263 79.2615 80.9638 80.7867 81.6389 82.0368C82.339 83.262 83.2516 84.1871 84.3767 84.8122C85.5268 85.4122 86.777 85.7123 88.1271 85.7123Z"
            fill="black"
          />
          <path
            d="M102.026 77.4238C102.026 75.3236 102.451 73.4859 103.301 71.9107C104.152 70.3105 105.314 69.0853 106.789 68.2352C108.29 67.3601 109.977 66.9226 111.852 66.9226C113.653 66.9226 115.278 67.3601 116.728 68.2352C118.178 69.1103 119.241 70.248 119.916 71.6481V59.9468H122.541V87.7H119.916V83.1245C119.291 84.5496 118.266 85.7248 116.841 86.6499C115.415 87.55 113.74 88 111.815 88C109.94 88 108.252 87.5625 106.752 86.6874C105.277 85.8123 104.114 84.5746 103.264 82.9745C102.439 81.3743 102.026 79.5241 102.026 77.4238ZM119.916 77.4613C119.916 75.8111 119.578 74.361 118.903 73.1108C118.228 71.8607 117.303 70.898 116.128 70.223C114.978 69.5479 113.703 69.2104 112.303 69.2104C110.852 69.2104 109.552 69.5354 108.402 70.1855C107.252 70.8355 106.339 71.7857 105.664 73.0358C105.014 74.2609 104.689 75.7236 104.689 77.4238C104.689 79.099 105.014 80.5742 105.664 81.8493C106.339 83.0995 107.252 84.0621 108.402 84.7372C109.552 85.3872 110.852 85.7123 112.303 85.7123C113.703 85.7123 114.978 85.3747 116.128 84.6997C117.303 84.0246 118.228 83.062 118.903 81.8118C119.578 80.5617 119.916 79.1115 119.916 77.4613Z"
            fill="black"
          />
          <path
            d="M127.334 77.4613C127.334 75.3361 127.759 73.4859 128.61 71.9107C129.46 70.3105 130.635 69.0853 132.135 68.2352C133.635 67.3601 135.348 66.9226 137.273 66.9226C139.798 66.9226 141.874 67.5477 143.499 68.7978C145.149 70.048 146.212 71.7481 146.687 73.8984H143.874C143.524 72.4232 142.761 71.2731 141.586 70.448C140.436 69.5979 138.998 69.1728 137.273 69.1728C135.898 69.1728 134.66 69.4854 133.56 70.1105C132.46 70.7355 131.585 71.6731 130.935 72.9233C130.31 74.1484 129.997 75.6611 129.997 77.4613C129.997 79.2615 130.31 80.7867 130.935 82.0368C131.585 83.287 132.46 84.2246 133.56 84.8497C134.66 85.4747 135.898 85.7873 137.273 85.7873C138.998 85.7873 140.436 85.3747 141.586 84.5496C142.761 83.6995 143.524 82.5244 143.874 81.0242H146.687C146.212 83.1245 145.149 84.8122 143.499 86.0873C141.849 87.3625 139.773 88 137.273 88C135.348 88 133.635 87.575 132.135 86.7249C130.635 85.8498 129.46 84.6246 128.61 83.0495C127.759 81.4493 127.334 79.5866 127.334 77.4613Z"
            fill="black"
          />
          <path
            d="M150.335 77.4238C150.335 75.3236 150.748 73.4859 151.573 71.9107C152.423 70.3105 153.586 69.0853 155.061 68.2352C156.561 67.3601 158.249 66.9226 160.124 66.9226C162.074 66.9226 163.749 67.3726 165.149 68.2727C166.575 69.1728 167.6 70.323 168.225 71.7231V67.2226H170.85V87.7H168.225V83.162C167.575 84.5621 166.537 85.7248 165.112 86.6499C163.712 87.55 162.037 88 160.086 88C158.236 88 156.561 87.5625 155.061 86.6874C153.586 85.8123 152.423 84.5746 151.573 82.9745C150.748 81.3743 150.335 79.5241 150.335 77.4238ZM168.225 77.4613C168.225 75.8111 167.887 74.361 167.212 73.1108C166.537 71.8607 165.612 70.898 164.437 70.223C163.287 69.5479 162.012 69.2104 160.611 69.2104C159.161 69.2104 157.861 69.5354 156.711 70.1855C155.561 70.8355 154.648 71.7857 153.973 73.0358C153.323 74.2609 152.998 75.7236 152.998 77.4238C152.998 79.099 153.323 80.5742 153.973 81.8493C154.648 83.0995 155.561 84.0621 156.711 84.7372C157.861 85.3872 159.161 85.7123 160.611 85.7123C162.012 85.7123 163.287 85.3747 164.437 84.6997C165.612 84.0246 166.537 83.062 167.212 81.8118C167.887 80.5617 168.225 79.1115 168.225 77.4613Z"
            fill="black"
          />
          <path
            d="M183.894 88C181.544 88 179.619 87.4625 178.119 86.3874C176.643 85.2872 175.818 83.7995 175.643 81.9243H178.344C178.469 83.0745 179.006 84.0121 179.956 84.7372C180.931 85.4372 182.232 85.7873 183.857 85.7873C185.282 85.7873 186.395 85.4497 187.195 84.7747C188.02 84.0996 188.432 83.262 188.432 82.2619C188.432 81.5618 188.207 80.9867 187.757 80.5367C187.307 80.0866 186.732 79.7366 186.032 79.4865C185.357 79.2115 184.432 78.924 183.257 78.6239C181.731 78.2239 180.494 77.8239 179.544 77.4238C178.594 77.0238 177.781 76.4362 177.106 75.6611C176.456 74.861 176.131 73.7984 176.131 72.4732C176.131 71.4731 176.431 70.548 177.031 69.6979C177.631 68.8478 178.481 68.1727 179.581 67.6727C180.681 67.1726 181.932 66.9226 183.332 66.9226C185.532 66.9226 187.307 67.4852 188.657 68.6103C190.007 69.7104 190.733 71.2356 190.833 73.1858H188.207C188.132 71.9857 187.657 71.0231 186.782 70.298C185.932 69.5479 184.757 69.1728 183.257 69.1728C181.931 69.1728 180.856 69.4854 180.031 70.1105C179.206 70.7355 178.794 71.5106 178.794 72.4357C178.794 73.2358 179.031 73.8984 179.506 74.4235C180.006 74.9235 180.619 75.3236 181.344 75.6236C182.069 75.8986 183.044 76.2112 184.269 76.5612C185.744 76.9613 186.92 77.3488 187.795 77.7238C188.67 78.0989 189.42 78.649 190.045 79.374C190.67 80.0991 190.995 81.0617 191.02 82.2619C191.02 83.362 190.72 84.3496 190.12 85.2247C189.52 86.0748 188.682 86.7499 187.607 87.25C186.532 87.75 185.294 88 183.894 88Z"
            fill="black"
          />
          <path
            d="M199.375 69.4354V82.1494C199.375 83.3995 199.612 84.2621 200.087 84.7372C200.562 85.2122 201.4 85.4497 202.6 85.4497H205V87.7H202.188C200.337 87.7 198.962 87.275 198.062 86.4249C197.162 85.5498 196.712 84.1246 196.712 82.1494V69.4354H193.862V67.2226H196.712V62.0845H199.375V67.2226H205V69.4354H199.375Z"
            fill="black"
          />
          <rect
            x="107.484"
            width="35.2982"
            height="55.6626"
            rx="17.6491"
            fill="#55B719"
          />
          <mask
            id="mask0_1791_2446"
            style="mask-type:alpha"
            maskUnits="userSpaceOnUse"
            x="107"
            y="0"
            width="36"
            height="56"
          >
            <rect
              x="107.484"
              width="35.2982"
              height="55.6626"
              rx="17.6491"
              fill="#424242"
            />
          </mask>
          <g mask="url(#mask0_1791_2446)">
            <rect
              x="152.404"
              y="15.5603"
              width="7.456"
              height="26.5823"
              rx="3.728"
              transform="rotate(90 152.404 15.5603)"
              fill="white"
            />
            <rect
              x="117.07"
              y="15.5603"
              width="7.456"
              height="19.7746"
              rx="3.728"
              transform="rotate(90 117.07 15.5603)"
              fill="white"
            />
            <rect
              x="152.404"
              y="26.9065"
              width="7.456"
              height="26.5823"
              rx="3.728"
              transform="rotate(90 152.404 26.9065)"
              fill="white"
            />
            <rect
              x="117.07"
              y="26.9065"
              width="7.456"
              height="19.7746"
              rx="3.728"
              transform="rotate(90 117.07 26.9065)"
              fill="white"
            />
          </g>
          <path
            d="M141.871 62.0792L130.039 50.8952L137.819 45.2222L141.871 62.0792Z"
            fill="#55B719"
          />
        </svg>