<svg width="317" height="48" viewBox="0 0 317 48" fill="none" xmlns="http://www.w3.org/2000/svg">
<path d="M35.9539 10.1074C32.7021 3.4811 25.769 1.5791 19.0814 1.5791C11.1666 1.64045 2.45419 5.26039 2.45419 14.0955C2.45419 23.7282 10.553 26.0597 19.3268 27.1027C25.0328 27.7163 29.2663 29.3728 29.2663 33.4223C29.2663 38.0852 24.4806 39.8645 19.3881 39.8645C14.173 39.8645 9.20323 37.7785 7.30123 33.0541L0.552194 36.5514C3.74265 44.4048 10.4917 47.1044 19.2654 47.1044C28.8368 47.1044 37.3037 42.9936 37.3037 33.4223C37.3037 23.176 28.9595 20.8445 20.0017 19.7401C14.8479 19.1266 10.4303 18.0835 10.4303 14.3409C10.4303 11.1505 13.314 8.6349 19.3268 8.6349C23.9897 8.6349 28.0392 10.9664 29.5117 13.4206L35.9539 10.1074ZM104.189 46.0614V3.11297H96.1512V21.2126H75.0451V3.11297H66.9463V46.0614H75.0451V28.6979H96.1512V46.0614H104.189ZM155.323 2.19264C140.475 2.19264 133.235 13.5433 133.235 24.8326C133.235 36.1219 140.23 46.9817 155.323 46.9817C170.416 46.9817 177.227 35.8765 177.35 24.7712C177.472 13.5433 170.11 2.19264 155.323 2.19264ZM155.323 9.55523C165.447 9.55523 169.496 17.6541 169.373 24.8939C169.251 31.9497 165.447 39.5577 155.323 39.5577C145.2 39.5577 141.396 32.0111 141.212 24.9553C141.027 17.7154 145.2 9.55523 155.323 9.55523ZM226.811 2.19264C211.963 2.19264 204.723 13.5433 204.723 24.8326C204.723 36.1219 211.718 46.9817 226.811 46.9817C241.904 46.9817 248.715 35.8765 248.837 24.7712C248.96 13.5433 241.598 2.19264 226.811 2.19264ZM226.811 9.55523C236.935 9.55523 240.984 17.6541 240.861 24.8939C240.739 31.9497 236.935 39.5577 226.811 39.5577C216.688 39.5577 212.884 32.0111 212.699 24.9553C212.515 17.7154 216.688 9.55523 226.811 9.55523ZM316.215 45.4478L303.207 30.784C311.368 29.1274 314.067 23.176 314.067 17.2859C314.067 9.862 308.729 3.11297 298.606 3.05161C291.795 3.05161 284.985 2.99026 278.175 2.99026V46H286.274V31.643H294.066L306.582 46H316.215V45.4478ZM298.606 10.5983C303.698 10.5983 305.968 14.0341 305.968 17.47C305.968 20.9059 303.76 24.3417 298.606 24.3417H286.274V10.5983H298.606Z" fill="white"/>
</svg>
