<svg width="317" height="42" viewBox="0 0 317 42" fill="none" xmlns="http://www.w3.org/2000/svg">
<path d="M0 0.200957V3.67464H13.5656V42H18.0971V3.67464H31.7488V0.200957H0Z" fill="white"/>
<path d="M49.7311 0.200957L33.8998 42H38.3452L43.4215 28.4211H60.4574L65.5338 42H69.9505L53.9758 0.200957H49.7311ZM44.54 25.177L51.8821 4.9378L59.3389 25.177H44.54Z" fill="white"/>
<path d="M105.284 0.200957V24.5167L105.571 36.3158L82.2255 0.200957H77.7228V42H81.7667V18.8038L81.3652 6.14354L104.653 42H109.299V0.200957H105.284Z" fill="white"/>
<path d="M148.878 0.200957V24.5167L149.165 36.3158L125.819 0.200957H121.316V42H125.36V18.8038L124.959 6.14354L148.247 42H152.893V0.200957H148.878Z" fill="white"/>
<path d="M173.858 0.200957V3.67464H187.424V42H191.955V3.67464H205.607V0.200957H173.858Z" fill="white"/>
<path d="M241.055 10.9952C241.055 8.33493 240.558 6.22966 239.564 4.67943C238.589 3.11005 236.906 1.94258 234.516 1.17703C232.126 0.392345 228.847 0 224.679 0C221.314 0 217.088 0.248804 212.003 0.746412V42H216.534V22.3062L227.777 22.2775L237.442 42H242.174V41.4545L232.308 21.8182C235.214 21.1292 237.394 19.9043 238.847 18.1435C240.319 16.3828 241.055 14 241.055 10.9952ZM216.534 3.67464C219.861 3.4067 222.595 3.27273 224.736 3.27273C226.763 3.27273 228.494 3.38756 229.928 3.61722C231.381 3.82775 232.557 4.13397 233.455 4.53589C234.354 4.91866 235.061 5.44498 235.577 6.11483C236.094 6.78469 236.438 7.50239 236.61 8.26794C236.801 9.01435 236.897 9.93301 236.897 11.0239C236.897 12.5359 236.734 13.7703 236.409 14.7273C236.084 15.6842 235.491 16.5072 234.631 17.1962C233.771 17.8852 232.576 18.3732 231.046 18.6603C229.536 18.9474 227.585 19.0909 225.195 19.0909H216.534V3.67464Z" fill="white"/>
<path d="M249.688 0.200957V3.04306H255.309V39.1579H249.688V42H265.405V39.1579H259.841V3.04306H265.405V0.200957H249.688Z" fill="white"/>
<path d="M276.332 42H280.576V27.8182L280.835 5.71292L294.716 37.4067H298.616L312.526 6.02871L312.784 27.7608V42H317V27.8182L316.34 0.200957H310.862L296.695 32.2679L282.641 0.200957H276.963L276.332 27.8182V42Z" fill="white"/>
</svg>
