<svg width="36" height="19" viewBox="0 0 36 19" fill="none" xmlns="http://www.w3.org/2000/svg">
<rect width="2.4" height="7.6" rx="1.2" transform="matrix(-1 0 0 1 36 5.6001)" fill="white"/>
<rect width="2.4" height="18.8" rx="1.2" transform="matrix(-1 0 0 1 31.2 0)" fill="white"/>
<rect width="2.4" height="12.4" rx="1.2" transform="matrix(-1 0 0 1 26.4 4)" fill="white"/>
<rect width="2.4" height="12.4" rx="1.2" transform="matrix(-1 0 0 1 12 4)" fill="white"/>
<rect width="2.4" height="12.4" rx="1.2" transform="matrix(-1 0 0 1 7.19995 4)" fill="white"/>
<rect width="2.4" height="18.8" rx="1.2" transform="matrix(-1 0 0 1 21.6 0)" fill="white"/>
<rect width="2.4" height="18.8" rx="1.2" transform="matrix(-1 0 0 1 2.40002 0)" fill="white"/>
<rect width="2.4" height="7.6" rx="1.2" transform="matrix(-1 0 0 1 16.8 5.6001)" fill="white"/>
</svg>
