<svg width="363" height="47" viewBox="0 0 363 47" fill="none" xmlns="http://www.w3.org/2000/svg">
<rect y="14" width="6" height="19" rx="3" fill="#55B719"/>
<rect x="12" width="6" height="47" rx="3" fill="#55B719"/>
<rect x="24" y="10" width="6" height="31" rx="3" fill="#55B719"/>
<rect x="60" y="10" width="6" height="31" rx="3" fill="#55B719"/>
<rect x="72" y="10" width="6" height="31" rx="3" fill="#55B719"/>
<rect x="36" width="6" height="47" rx="3" fill="#55B719"/>
<rect x="84" width="6" height="47" rx="3" fill="#55B719"/>
<rect x="48" y="14" width="6" height="19" rx="3" fill="#55B719"/>
<rect x="95" y="14" width="6" height="19" rx="3" fill="#55B719"/>
<rect x="107" width="6" height="47" rx="3" fill="#55B719"/>
<rect x="119" y="10" width="6" height="31" rx="3" fill="#55B719"/>
<rect x="155" y="10" width="6" height="31" rx="3" fill="#55B719"/>
<rect x="167" y="10" width="6" height="31" rx="3" fill="#55B719"/>
<rect x="131" width="6" height="47" rx="3" fill="#55B719"/>
<rect x="179" width="6" height="47" rx="3" fill="#55B719"/>
<rect x="143" y="14" width="6" height="19" rx="3" fill="#55B719"/>
<rect x="190" y="14" width="6" height="19" rx="3" fill="#55B719"/>
<rect x="202" width="6" height="47" rx="3" fill="#55B719"/>
<rect x="214" y="10" width="6" height="31" rx="3" fill="#55B719"/>
<rect x="250" y="10" width="6" height="31" rx="3" fill="#55B719"/>
<rect x="262" y="10" width="6" height="31" rx="3" fill="#55B719"/>
<rect x="226" width="6" height="47" rx="3" fill="#55B719"/>
<rect x="274" width="6" height="47" rx="3" fill="#55B719"/>
<rect x="238" y="14" width="6" height="19" rx="3" fill="#55B719"/>
<rect width="6" height="19" rx="3" transform="matrix(-1 0 0 1 363 14)" fill="#55B719"/>
<rect width="6" height="47" rx="3" transform="matrix(-1 0 0 1 351 0)" fill="#55B719"/>
<rect width="6" height="31" rx="3" transform="matrix(-1 0 0 1 339 10)" fill="#55B719"/>
<rect width="6" height="31" rx="3" transform="matrix(-1 0 0 1 303 10)" fill="#55B719"/>
<rect width="6" height="31" rx="3" transform="matrix(-1 0 0 1 291 10)" fill="#55B719"/>
<rect width="6" height="47" rx="3" transform="matrix(-1 0 0 1 327 0)" fill="#55B719"/>
<rect width="6" height="19" rx="3" transform="matrix(-1 0 0 1 315 14)" fill="#55B719"/>
</svg>
